<svg width="44" height="44" viewBox="0 0 44 44" fill="none" xmlns="http://www.w3.org/2000/svg">
<g clip-path="url(#clip0_9_3287)">
<g clip-path="url(#clip1_9_3287)">
<path d="M31.68 0H12.32C5.51585 0 0 5.51585 0 12.32V31.68C0 38.4841 5.51585 44 12.32 44H31.68C38.4841 44 44 38.4841 44 31.68V12.32C44 5.51585 38.4841 0 31.68 0Z" fill="#173E35"/>
<path d="M12.2 35.0902V14.4102H22.32C35.08 14.4102 35.08 31.1302 22.32 31.1302H17.92V25.4102H22.32C27.6 25.4102 27.6 20.1302 22.32 20.1302H17.92V35.0902H12.2Z" fill="#D7EF88"/>
<path d="M32.12 14.0799C33.8211 14.0799 35.2 12.701 35.2 10.9999C35.2 9.29888 33.8211 7.91992 32.12 7.91992C30.419 7.91992 29.04 9.29888 29.04 10.9999C29.04 12.701 30.419 14.0799 32.12 14.0799Z" fill="#D7EF88"/>
</g>
</g>
<defs>
<clipPath id="clip0_9_3287">
<rect width="44" height="44" fill="white"/>
</clipPath>
<clipPath id="clip1_9_3287">
<rect width="44" height="44" fill="white"/>
</clipPath>
</defs>
</svg>
